PathFileType	4	(X/Y/Z)	Run_400 02
DataRate	CameraRate	NumFrames	NumMarkers	Units	OrigDataRate	OrigDataStartFrame	OrigNumFrames
100	100	7	42	mm	100	206	128
Frame#	Time	LASI			RASI			LPSI			RPSI			RTH1			RTH3			LTH1			LTH2			LTH3			RTB1			RTB2			LTB1			LTB2			RCAL			RTOE			LCAL			LTOE			LACR			RACR			CLAV			C7			RUA1			RUA2			RUA3			RLEL			RMEL			LUA1			LUA2			LUA3			LLEL			LMEL			RFAsuperior			RFAradius			RFAulna			LFAsuperior			LFAradius			LFAulna			RTH2			RTB3			RMT5			LMT5			LTB3		
		X1	Y1	Z1	X2	Y2	Z2	X3	Y3	Z3	X4	Y4	Z4	X5	Y5	Z5	X6	Y6	Z6	X7	Y7	Z7	X8	Y8	Z8	X9	Y9	Z9	X10	Y10	Z10	X11	Y11	Z11	X12	Y12	Z12	X13	Y13	Z13	X14	Y14	Z14	X15	Y15	Z15	X16	Y16	Z16	X17	Y17	Z17	X18	Y18	Z18	X19	Y19	Z19	X20	Y20	Z20	X21	Y21	Z21	X22	Y22	Z22	X23	Y23	Z23	X24	Y24	Z24	X25	Y25	Z25	X26	Y26	Z26	X27	Y27	Z27	X28	Y28	Z28	X29	Y29	Z29	X30	Y30	Z30	X31	Y31	Z31	X32	Y32	Z32	X33	Y33	Z33	X34	Y34	Z34	X35	Y35	Z35	X36	Y36	Z36	X37	Y37	Z37	X38	Y38	Z38	X39	Y39	Z39	X40	Y40	Z40	X41	Y41	Z41	X42	Y42	Z42	

206	  2.060000	776.068696	1032.117622	-443.342870	793.634676	1058.005234	-197.631800	611.848903	1129.076588	-353.242269	611.898341	1127.561587	-268.796373	776.858208	943.143155	-132.241597	885.124175	731.459606	-160.239033	662.673190	930.380283	-498.551517	677.844226	796.614038	-483.455130	543.907114	705.065813	-462.914847	962.770529	502.136352	-215.884689	883.723003	421.580060	-167.236874	477.519029	476.813730	-403.719063	373.722746	460.393511	-454.628560	722.415231	226.174378	-252.436253	941.411279	149.105872	-240.901936	166.395516	319.474069	-333.237973	273.067601	116.013532	-368.648452	816.143277	1570.341472	-452.206448	729.661447	1567.920373	-132.874831	834.129245	1525.546205	-254.837597	710.802462	1600.043280	-321.391612	629.287468	1502.263534	-61.647757	544.052033	1459.496775	-103.634954	547.144925	1418.307381	-32.925207	491.093369	1339.374815	 -7.690420	468.496381	1327.209811	-87.996034	809.877191	1481.527811	-563.512065	743.645192	1404.012327	-588.281483	808.059379	1379.377864	-628.653799	826.138697	1299.236332	-670.582361	766.586237	1253.044381	-643.631281	530.901206	1269.186818	 -0.953986	701.181357	1164.070846	-51.710385	648.215261	1119.215371	-34.266657	901.903668	1282.636367	-573.240051	933.437831	1329.679615	-426.839307	950.695926	1264.188537	-437.768145	894.166742	851.293639	-148.763712	882.775606	317.495677	-225.332120	900.217081	124.709976	-159.213806	202.520309	122.222361	-427.236736	336.834687	327.262700	-387.750821	
207	  2.070000	777.582428	1035.257606	-444.159487	793.478799	1059.190816	-198.495592	613.456668	1134.117896	-353.591793	613.179831	1132.128277	-268.946331	773.920102	941.991213	-131.270979	878.403746	728.476137	-161.322051	664.653961	934.623984	-498.223100	679.790506	800.252830	-482.439237	545.130640	709.104197	-465.118355	968.394513	498.731077	-213.922727	899.308560	409.747003	-165.399829	469.198245	483.690335	-405.601258	363.688610	473.877355	-454.762104	760.168943	199.567307	-251.757033	985.245392	142.680092	-241.160969	148.096355	347.406309	-330.346181	242.076180	138.141117	-366.981643	816.535249	1575.337507	-448.650986	730.155858	1571.014316	-130.610992	834.774059	1528.835294	-252.428870	711.042114	1603.073017	-318.876585	628.271890	1507.319093	-60.476805	543.750379	1464.990778	-105.385617	545.311185	1425.215762	-33.552460	487.459230	1345.994788	 -9.107623	466.790688	1332.873566	-89.940062	811.766350	1488.573610	-560.778122	746.508973	1411.404350	-588.173208	810.871712	1386.914550	-627.819665	828.920783	1307.020330	-670.539805	769.135632	1260.723961	-644.708989	527.210982	1276.048573	 -0.682870	699.644866	1171.111533	-46.234614	646.383132	1126.099304	-30.200734	903.141011	1290.417439	-572.256099	931.846809	1335.876791	-424.793607	950.295202	1270.744165	-436.152003	891.016838	848.683217	-148.165265	909.657658	306.441996	-224.330199	946.114230	113.330294	-159.043557	171.865257	148.735098	-425.206624	318.632355	343.891079	-386.938717	
208	  2.080000	778.864708	1037.612819	-444.150240	792.948533	1059.166145	-198.149506	614.376078	1138.014108	-352.903345	614.054486	1134.952348	-268.174702	771.243093	939.014620	-130.326439	870.861474	723.109747	-161.904900	667.906780	937.582079	-497.920526	683.078565	802.825613	-481.287329	547.880453	711.673580	-466.834146	971.237120	494.503408	-212.576194	913.437750	398.323111	-163.943052	462.849959	489.472144	-407.343747	356.064604	486.876429	-454.759849	797.096669	176.264074	-251.102037	1026.286380	140.054902	-241.767133	131.650432	377.315864	-330.039087	212.717600	162.560898	-361.308242	816.455868	1579.483345	-445.840332	730.936454	1573.129037	-128.163374	835.346062	1531.048544	-250.168199	711.314512	1605.390535	-316.152605	628.071581	1510.519771	-58.661114	544.535275	1467.962076	-106.666918	544.422139	1429.929687	-33.879271	485.403858	1350.588868	 -9.903542	466.255999	1336.369796	-91.248854	812.810292	1494.383871	-558.647776	748.292241	1417.549942	-587.631379	812.473859	1393.279866	-627.008525	830.253462	1313.672311	-670.522270	770.010607	1267.493174	-645.833886	524.909134	1280.622553	 -0.102790	699.430183	1176.085332	-40.332813	645.722419	1130.841375	-26.758720	903.381407	1295.558778	-571.766799	930.275676	1338.327947	-423.006578	949.459778	1273.194727	-435.782154	888.032197	845.114414	-146.222825	934.352524	296.963696	-223.519504	990.099774	104.931278	-160.217773	144.205380	176.061361	-420.815479	302.416277	361.157655	-385.821400	
209	  2.090000	780.170834	1039.011088	-442.746141	792.500080	1058.404230	-196.379750	615.304629	1140.257983	-352.128733	614.539626	1135.836493	-266.784179	769.411066	935.357509	-129.710742	862.518336	715.901725	-161.130131	672.004735	939.231827	-497.868413	686.825590	804.282013	-480.375397	551.562615	712.904139	-467.903783	971.404626	489.790895	-211.912312	924.898307	388.181887	-162.865691	458.530080	494.073290	-408.038413	351.593984	498.790052	-454.934674	831.272759	156.878940	-250.416505	1062.515204	141.548414	-242.623854	118.867851	408.765545	-331.725565	185.296637	188.420786	-353.516283	816.048303	1582.813398	-443.873161	731.825178	1574.274046	-125.651366	835.706089	1532.322061	-248.118553	711.625166	1607.049915	-313.333531	628.402390	1511.857031	-56.399714	546.076735	1468.445433	-107.243258	544.018361	1431.798601	-34.054137	484.629178	1352.726367	-10.012874	466.829987	1337.505506	-91.718551	812.895813	1498.817863	-557.097038	748.380848	1422.356540	-586.599206	812.586215	1398.496157	-626.114516	830.067080	1319.094548	-670.413964	769.248951	1273.214913	-646.935150	524.023188	1282.770797	  0.959976	700.537837	1178.991336	-33.931913	646.379955	1133.381518	-23.675728	902.497812	1297.998866	-571.740436	928.947380	1337.147474	-421.605395	948.117327	1271.653985	-436.517484	884.712291	839.778630	-144.011176	955.642477	289.512931	-222.585355	1030.607113	 99.898047	-162.893986	118.747282	203.978740	-414.614125	288.788612	378.724433	-384.411879	
210	  2.100000	781.847046	1039.275264	-440.623327	792.512930	1056.780872	-194.038151	616.405063	1140.507214	-351.869600	614.923117	1134.874535	-265.782905	768.297854	931.695642	-129.272560	853.197791	707.519610	-158.766269	676.518201	939.522396	-498.059322	690.715093	804.438321	-479.755533	556.144832	712.606138	-468.614342	969.538432	484.940853	-211.331238	932.449775	379.854628	-161.917770	456.223852	497.359012	-407.480608	350.294168	509.193504	-455.302430	860.483452	141.947762	-250.012120	1091.940384	145.860912	-243.342332	110.680437	440.841574	-333.584073	159.889288	215.369755	-345.999267	815.482999	1585.076597	-442.375639	732.649241	1574.294257	-123.151352	835.862163	1532.634566	-246.243783	711.890816	1607.899356	-310.502908	628.873363	1511.377196	-53.962008	547.978647	1466.683422	-107.017492	544.176910	1431.091958	-33.775366	484.835859	1351.941619	 -9.437321	468.458315	1336.107848	-91.181929	811.920724	1501.819928	-555.850559	746.762938	1425.824640	-585.096668	811.131803	1402.486674	-625.153156	828.335200	1323.146197	-670.187484	766.821364	1277.774996	-647.888933	524.557662	1282.439597	  2.690188	702.838555	1179.752433	-27.110238	648.433463	1133.678479	-20.505882	900.480838	1297.780562	-572.258776	928.093370	1332.459034	-420.915720	946.007141	1266.677955	-438.166025	880.089398	832.117454	-142.576185	972.564736	284.255026	-221.173841	1064.951658	 97.983164	-166.067325	 95.206829	233.323711	-408.204450	277.924731	396.274540	-382.631197	
211	  2.110000	784.016518	1038.406604	-438.822947	793.044431	1054.085936	-192.075393	617.139970	1138.833265	-352.056884	615.504825	1132.337735	-266.035175	767.456761	927.858801	-128.586392	843.152709	698.632296	-155.595109	681.074915	938.333802	-498.247085	694.901281	803.056469	-479.159801	561.803275	710.383751	-469.121336	966.502249	480.255293	-210.278256	935.731305	373.222918	-161.108890	455.831699	499.293095	-406.132803	351.664832	518.002358	-455.570822	882.803368	131.608694	-250.727301	1113.276615	150.270268	-242.982650	107.175272	472.570033	-334.099615	137.121789	243.276239	-340.630878	814.849185	1585.851919	-440.652362	733.269056	1572.989971	-120.677095	835.867579	1531.833382	-244.414978	711.984395	1607.681224	-307.677426	629.269750	1509.252317	-51.464312	549.889637	1462.998336	-105.946159	545.158258	1428.436648	-32.596172	485.996995	1348.157058	 -8.102085	471.083674	1332.104488	-89.570248	809.901136	1503.449645	-554.567910	743.917537	1428.021775	-583.199936	808.270946	1405.123958	-624.295320	825.107136	1325.706331	-669.910095	762.634376	1281.126709	-648.500763	526.487081	1279.642232	  5.238386	706.183771	1178.228559	-20.135097	651.882461	1131.703549	-16.782592	897.396690	1295.071490	-573.446597	927.741135	1324.361902	-421.313392	942.876996	1258.826617	-440.717886	873.653633	822.458913	-141.828591	984.548911	280.778438	-219.441744	1089.954786	 97.944154	-167.800663	 74.497227	264.864468	-403.446785	269.824408	413.568347	-380.458662	
212	  2.120000	786.472438	1036.656709	-437.640403	793.817994	1050.416232	-190.656672	616.977369	1135.593077	-352.332545	616.255288	1128.482248	-267.434370	766.537547	923.191561	-127.173811	833.365890	689.898040	-152.998489	685.397843	935.510679	-498.104724	699.687248	800.013666	-478.231407	568.556597	705.935654	-469.190650	962.851410	475.795686	-209.012776	935.452464	367.579870	-160.903082	457.240265	499.975428	-404.548125	355.229860	525.463303	-455.416573	897.125460	124.964547	-253.440307	1126.238223	152.014269	-240.545707	108.098406	503.159636	-332.879338	118.178339	271.873823	-338.345453	814.128494	1584.918008	-438.380215	733.632315	1570.224589	-118.223563	835.763703	1529.783305	-242.539504	711.812076	1606.164389	-304.843974	629.695583	1505.726443	-48.772182	551.584324	1457.587729	-104.009996	546.920858	1423.992255	-30.376349	488.383020	1341.864825	 -5.760121	474.549738	1325.572341	-86.843084	807.014748	1503.808055	-553.066934	740.347835	1429.017518	-581.060271	804.310599	1406.323099	-623.727836	820.523309	1326.742355	-669.663077	756.698596	1283.284222	-648.598462	529.749206	1274.432601	  8.679945	710.620744	1174.398226	-13.266049	656.662385	1127.459887	-12.205186	893.299930	1290.165103	-575.374115	927.576900	1313.072013	-422.991143	938.676832	1248.360268	-444.373396	865.962089	811.897556	-140.696269	991.334056	278.018785	-218.196787	1103.550485	 97.586900	-166.648419	 58.152085	298.492474	-401.531432	264.600688	430.432441	-378.067049	
